<?xml version="1.0" encoding ="UTF-8"?>

<X3D profile="Immersive" version="3.0">
  <head>
    <meta name="filename" content="/home/erik/TOOLS/LEGO3_distrib/source/cube.x3d"/>
    <meta name="generator" content="Visualization ToolKit X3D exporter v0.9.1"/>
    <meta name="numberofelements" content="6"/>
  </head>
  <Scene>
    <Background skyColor="0.319997 0.340002 0.429999"/>
    <Viewpoint fieldOfView="0.523599" position="-2.44905 1.52687 -0.701999" description="Default View" orientation="0.496699 0.858394 -0.128259 -1.96271" centerOfRotation="0.5 0.5 0.5"/>
    <NavigationInfo type='"EXAMINE" "FLY" "ANY"' speed="4" headlight="true"/>
    <DirectionalLight ambientIntensity="1" intensity="0" color="1 1 1"/>
    <Transform DEF="ROOT" translation="0 0 0">
      <DirectionalLight direction="-0.111619 -0.766044 -0.633022" color="1 0.97232 0.90222" intensity="0.75" on="true"/>
      <DirectionalLight direction="0.0449435 0.965926 -0.254887" color="0.90824 0.93314 1" intensity="0.25" on="true"/>
      <DirectionalLight direction="-0.939693 0 0.34202" color="0.9998 0.9998 0.9998" intensity="0.214286" on="true"/>
      <DirectionalLight direction="0.939693 0 0.34202" color="0.9998 0.9998 0.9998" intensity="0.214286" on="true"/>
      <Transform translation="0.5 0.5 0.5" rotation="0 0 1 -0" scale="0.25 0.25 0.25">
        <Shape>
          <Appearance>
            <Material ambientIntensity="0" emissiveColor="0 0 0" diffuseColor="1 1 1" specularColor="0 0 0" shininess="0.0078125" transparency="0"/>
          </Appearance>
          <IndexedLineSet colorPerVertex="true" coordIndex="
            0 1 -1 
            2 3 -1 
            4 5 -1 
            ">
            <Coordinate DEF="VTKcoordinates0000" point="
              -1 0 0,
              1 0 0,
              0 -1 0,
              0 1 0,
              0 0 -1,
              0 0 1,
              "/>
            <Color DEF="VTKcolors0000" color="
              1 0 0,
              1 0 0,
              0.996078 1 0,
              0.996078 1 0,
              0 1 0,
              0 1 0,
              "/>
          </IndexedLineSet>
        </Shape>
      </Transform>
      <Transform translation="0 0 0" rotation="0 0 1 -0" scale="1 1 1">
        <Shape>
          <Appearance>
            <Material ambientIntensity="0" emissiveColor="0 0 0" diffuseColor="1 1 1" specularColor="0.1 0.1 0.1" shininess="0.78125" transparency="0"/>
          </Appearance>
          <IndexedFaceSet solid="false" colorPerVertex="false" normalPerVertex="true" coordIndex="
            0 1 2 -1 
            3 4 5 -1 
            6 7 8 -1 
            9 10 11 -1 
            12 13 14 -1 
            15 16 17 -1 
            18 19 20 -1 
            21 22 23 -1 
            24 25 26 -1 
            27 28 29 -1 
            30 31 32 -1 
            33 34 35 -1 
            ">
            <Coordinate DEF="VTKcoordinates0001" point="
              0 0 0,
              1 1 0,
              1 0 0,
              0 0 0,
              0 1 0,
              1 1 0,
              0 0 0,
              0 1 1,
              0 1 0,
              0 0 0,
              0 0 1,
              0 1 1,
              0 1 0,
              1 1 1,
              1 1 0,
              0 1 0,
              0 1 1,
              1 1 1,
              1 0 0,
              1 1 0,
              1 1 1,
              1 0 0,
              1 1 1,
              1 0 1,
              0 0 0,
              1 0 0,
              1 0 1,
              0 0 0,
              1 0 1,
              0 0 1,
              0 0 1,
              1 0 1,
              1 1 1,
              0 0 1,
              1 1 1,
              0 1 1,
              "/>
            <Normal DEF="VTKnormals0001" vector="
              0 0 -1,
              0 0 -1,
              0 0 -1,
              0 0 -1,
              0 0 -1,
              0 0 -1,
              -1 0 0,
              -1 0 0,
              -1 0 0,
              -1 0 0,
              -1 0 0,
              -1 0 0,
              0 1 0,
              0 1 0,
              0 1 0,
              0 1 0,
              0 1 0,
              0 1 0,
              1 0 0,
              1 0 0,
              1 0 0,
              1 0 0,
              1 0 0,
              1 0 0,
              0 -1 0,
              0 -1 0,
              0 -1 0,
              0 -1 0,
              0 -1 0,
              0 -1 0,
              0 0 1,
              0 0 1,
              0 0 1,
              0 0 1,
              0 0 1,
              0 0 1,
              "/>
          </IndexedFaceSet>
        </Shape>
      </Transform>
    </Transform>
  </Scene>
</X3D>
